<svg width="96" height="96" viewBox="0 0 96 96" fill="none" xmlns="http://www.w3.org/2000/svg">
<path d="M76.1875 73.7438C74.9417 69.9104 71.3479 67.0833 67.0833 67.0833H62.2917V52.7083C62.2917 51.4375 61.7868 50.2187 60.8882 49.3201C59.9896 48.4215 58.7708 47.9167 57.5 47.9167H28.75V38.3333H38.3333C39.6042 38.3333 40.8229 37.8285 41.7216 36.9299C42.6202 36.0313 43.125 34.8125 43.125 33.5417V23.9583H52.7083C55.25 23.9583 57.6876 22.9487 59.4848 21.1514C61.282 19.3542 62.2917 16.9167 62.2917 14.375V12.4104C76.3313 18.0646 86.25 31.8167 86.25 47.9167C86.25 57.8833 82.4167 66.9396 76.1875 73.7438ZM43.125 85.9146C24.1979 83.5667 9.58333 67.4667 9.58333 47.9167C9.58333 44.9458 9.96667 42.0708 10.5896 39.3396L33.5417 62.2917V67.0833C33.5417 69.625 34.5513 72.0626 36.3486 73.8598C38.1458 75.657 40.5833 76.6667 43.125 76.6667M47.9167 0C41.6242 0 35.3933 1.2394 29.5798 3.64744C23.7662 6.05548 18.4839 9.58499 14.0345 14.0345C5.04835 23.0206 0 35.2084 0 47.9167C0 60.625 5.04835 72.8128 14.0345 81.7989C18.4839 86.2483 23.7662 89.7779 29.5798 92.1859C35.3933 94.5939 41.6242 95.8333 47.9167 95.8333C60.625 95.8333 72.8128 90.785 81.7989 81.7989C90.785 72.8128 95.8333 60.625 95.8333 47.9167C95.8333 41.6242 94.5939 35.3933 92.1859 29.5798C89.7779 23.7662 86.2483 18.4839 81.7989 14.0345C77.3494 9.58499 72.0671 6.05548 66.2536 3.64744C60.4401 1.2394 54.2092 0 47.9167 0Z" fill="black"/>
</svg>
