<svg width="83" height="83" viewBox="0 0 83 83" fill="none" xmlns="http://www.w3.org/2000/svg">
<path d="M41.5 0C47.0032 0 52.2811 2.18615 56.1725 6.07753C60.0638 9.96891 62.25 15.2468 62.25 20.75C62.25 26.2532 60.0638 31.5311 56.1725 35.4225C52.2811 39.3138 47.0032 41.5 41.5 41.5C35.9968 41.5 30.7189 39.3138 26.8275 35.4225C22.9362 31.5311 20.75 26.2532 20.75 20.75C20.75 15.2468 22.9362 9.96891 26.8275 6.07753C30.7189 2.18615 35.9968 0 41.5 0ZM41.5 51.875C64.4287 51.875 83 61.1606 83 72.625V83H0V72.625C0 61.1606 18.5712 51.875 41.5 51.875Z" fill="black"/>
</svg>
