<svg width="148" height="248" viewBox="0 0 148 248" fill="none" xmlns="http://www.w3.org/2000/svg">
    <path d="M92.4431 111.486H148V91.0092H106.788L84.0185 53.1266C80.6031 47.4385 74.4554 43.5706 67.3969 43.5706C65.3477 43.5706 63.5262 43.9119 61.7046 44.4807L0 63.7064V122.862H20.4923V81.1119L44.5138 73.6037L0 248H20.4923L53.1662 155.739L79.6923 191.119V248H100.185V175.079L71.8369 123.431L80.1477 90.7817M91.0769 40.9541C102.462 40.9541 111.569 31.8532 111.569 20.4771C111.569 9.10092 102.462 0 91.0769 0C79.6923 0 70.5846 9.10092 70.5846 20.4771C70.5846 31.8532 79.6923 40.9541 91.0769 40.9541Z" fill="white"/>
</svg>
