<svg width="266" height="383" viewBox="0 0 266 383" fill="none" xmlns="http://www.w3.org/2000/svg">
    <path d="M166.148 200.945H266V164.037H191.929L151.006 95.7564C144.868 85.5041 133.818 78.5326 121.132 78.5326C117.449 78.5326 114.175 79.1477 110.902 80.1729L0 114.826V221.45H36.8308V146.198L80.0046 132.665L0 447H36.8308L95.5554 280.708L143.231 344.477V447H180.062V315.566L129.112 222.475L144.049 163.627M163.692 73.8165C184.154 73.8165 200.523 57.4128 200.523 36.9083C200.523 16.4037 184.154 0 163.692 0C143.231 0 126.862 16.4037 126.862 36.9083C126.862 57.4128 143.231 73.8165 163.692 73.8165Z" fill="black"/>
</svg>
