<svg version="1.1" id="Layer_1" xmlns="http://www.w3.org/2000/svg" xmlns:xlink="http://www.w3.org/1999/xlink" x="0px" y="0px"
	 width="100%" viewBox="0 0 1000 1000" enable-background="new 0 0 1000 1000" xml:space="preserve">
<path fill="#FEFFFE" opacity="1.000000" stroke="none" 
	d="
M536.000000,1001.000000 
	C357.333344,1001.000000 179.166672,1001.000000 1.000000,1001.000000 
	C1.000000,667.666687 1.000000,334.333344 1.000000,1.000000 
	C334.333344,1.000000 667.666687,1.000000 1001.000000,1.000000 
	C1001.000000,334.333344 1001.000000,667.666687 1001.000000,1001.000000 
	C846.166687,1001.000000 691.333313,1001.000000 536.000000,1001.000000 
M395.840088,901.930054 
	C393.712830,912.029724 391.585571,922.129395 389.344635,932.768738 
	C402.736725,935.365417 415.017578,938.179871 427.440826,940.046326 
	C443.165894,942.409058 458.969818,945.187012 474.805359,945.680725 
	C509.020264,946.747498 543.335571,946.966064 577.100708,939.850769 
	C595.476868,935.978394 613.672852,931.256226 631.983521,927.063354 
	C635.037537,926.364075 635.899170,924.888367 635.870300,921.903198 
	C635.775208,912.078430 635.943115,902.251038 636.768188,892.222656 
	C830.511047,826.516296 947.159668,623.714417 907.250854,421.969330 
	C863.025391,198.403046 647.411682,52.555550 424.225342,95.236534 
	C206.818283,136.812317 60.123508,341.717377 92.449257,560.689331 
	C109.828796,678.416931 168.475754,771.920776 265.490112,840.921509 
	C305.099274,869.093201 348.778870,888.984741 395.840088,901.930054 
z"/>
<path fill="#011627" opacity="1.000000" stroke="none" 
	d="
M395.899048,901.163391 
	C348.778870,888.984741 305.099274,869.093201 265.490112,840.921509 
	C168.475754,771.920776 109.828796,678.416931 92.449257,560.689331 
	C60.123508,341.717377 206.818283,136.812317 424.225342,95.236534 
	C647.411682,52.555550 863.025391,198.403046 907.250854,421.969330 
	C947.159668,623.714417 830.511047,826.516296 636.290283,891.834961 
	C635.263794,870.774353 634.506653,850.104553 634.210388,829.428101 
	C633.603516,787.067261 633.226807,744.703125 632.796143,702.339905 
	C632.703064,693.181824 632.604553,684.016602 632.884277,674.866150 
	C632.975464,671.881714 633.698181,668.634766 635.090881,666.018311 
	C643.263184,650.664978 651.759949,635.484741 660.061951,620.199829 
	C663.945801,613.049377 667.497986,605.716980 671.445312,598.602905 
	C680.912476,581.540771 690.524719,564.559082 700.447754,547.630981 
	C702.139893,548.267029 703.577026,548.637573 704.766785,549.396179 
	C712.096069,554.069458 719.369446,558.830322 726.661438,563.562012 
	C724.415466,557.928345 721.327026,553.050049 718.412048,548.070251 
	C715.155884,542.507629 712.057007,536.852844 709.177246,530.988281 
	C711.962280,526.179138 714.479004,521.630310 716.953674,517.058838 
	C723.841736,504.334320 730.698853,491.593048 737.604980,478.878387 
	C738.576172,477.090363 739.753052,475.414062 740.830078,474.173584 
	C741.261353,481.073242 741.747742,487.482483 742.121704,493.898224 
	C742.724609,504.241119 743.412109,514.582764 743.777039,524.935059 
	C744.349304,541.165894 744.622803,557.407104 745.193787,573.638000 
	C745.264160,575.636963 746.382141,577.599121 747.360107,580.659302 
	C751.297363,553.488647 755.026733,527.752441 758.784180,501.823029 
	C769.048706,500.785675 778.482971,499.829498 787.917847,498.879730 
	C793.949219,498.272583 799.992554,497.766937 806.011169,497.052917 
	C817.056458,495.742523 828.077515,494.225983 839.127930,492.963348 
	C845.804749,492.200439 852.524109,491.817719 859.212158,491.143188 
	C863.990417,490.661255 868.748413,489.978302 874.095886,489.312775 
	C873.232727,488.742249 872.889771,488.325958 872.515625,488.295685 
	C859.736511,487.262512 846.956116,486.243408 834.172058,485.273621 
	C827.924866,484.799713 821.673096,484.371643 815.417908,484.021332 
	C804.390930,483.403870 793.362000,482.811005 782.328979,482.318573 
	C778.931824,482.166931 776.110840,481.741119 774.103577,478.289215 
	C771.733398,474.213104 768.507263,470.644928 765.828735,466.735626 
	C761.777771,460.823273 757.879517,454.806335 754.000122,448.492065 
	C756.706848,443.460327 759.397156,438.805573 761.895203,434.049896 
	C762.383850,433.119690 762.628967,431.454773 762.124939,430.718475 
	C760.278870,428.022003 758.143250,425.509521 755.982788,423.045135 
	C748.613464,414.638885 741.217957,406.255066 733.775757,397.913330 
	C721.048096,383.647522 708.258667,369.436798 695.531433,355.170593 
	C686.734985,345.310455 678.026794,335.371521 669.214600,325.525604 
	C667.393494,323.490875 665.005737,321.924957 663.370667,319.770020 
	C660.032959,315.371368 657.309387,310.491364 653.831909,306.217133 
	C645.862488,296.421844 637.556824,286.901001 629.462097,277.206543 
	C626.251770,273.361755 623.238892,269.352203 620.033752,265.287842 
	C619.369080,266.214813 618.684021,267.170105 617.742615,268.483032 
	C615.007629,265.137848 611.802368,262.541534 614.278687,258.583801 
	C607.195251,249.673660 600.312866,240.922836 593.326782,232.255524 
	C586.568909,223.871246 579.717712,215.561829 572.840515,207.275192 
	C572.546509,206.920990 571.577576,207.126938 570.847534,206.721680 
	C568.565247,203.279160 566.358459,200.186874 564.117188,197.046295 
	C572.059875,190.657516 580.178711,162.567032 576.960754,153.351562 
	C556.312317,187.501556 535.651184,221.672409 514.391357,256.833557 
	C499.085541,224.094635 484.187958,192.228867 469.290344,160.363098 
	C468.862579,160.446152 468.434784,160.529205 468.007019,160.612259 
	C468.821472,201.166626 469.635956,241.720993 470.461090,282.806702 
	C455.310150,280.367035 441.256104,278.104004 427.063202,275.818604 
	C436.855286,252.535278 446.118988,230.508316 455.382690,208.481369 
	C454.987274,208.221298 454.591827,207.961212 454.196411,207.701126 
	C452.908722,208.899750 451.552002,210.032974 450.344330,211.307419 
	C441.232880,220.922653 432.139313,230.554901 423.063263,240.203583 
	C416.285828,247.408600 409.542786,254.645996 402.073273,262.629089 
	C393.230682,240.409470 384.678955,218.920807 375.904053,196.871246 
	C374.616089,210.189529 373.186066,222.816269 372.236267,235.479034 
	C371.469391,245.703613 371.291962,255.972107 370.811615,266.219177 
	C370.782593,266.838959 370.387268,267.441559 369.924683,267.796143 
	C367.862274,265.230988 366.119659,262.850861 364.197968,260.625397 
	C357.452301,252.813492 350.627441,245.070023 343.870087,237.268158 
	C341.297852,234.298309 338.572540,231.414841 336.362946,228.186768 
	C331.860229,221.608673 327.016113,215.583603 318.837646,213.441055 
	C318.543945,213.364090 318.231171,213.359985 318.114441,213.345367 
	C314.145386,226.262085 310.071899,239.101303 306.275116,252.021835 
	C303.759277,260.583069 299.170532,268.120178 305.234589,278.283142 
	C313.213348,291.654999 318.078217,306.883820 324.295105,321.308533 
	C326.991516,327.564941 329.720642,333.807220 332.069580,340.236450 
	C330.866974,340.910675 330.068573,341.745087 329.186493,341.845642 
	C319.580658,342.941010 309.972015,344.036896 300.342926,344.894836 
	C293.278381,345.524323 286.174347,345.700592 279.103271,346.269745 
	C274.387604,346.649323 269.688202,347.288635 265.001740,347.954285 
	C261.444061,348.459595 257.918304,349.189606 253.389374,349.995605 
	C260.198883,351.437927 265.887909,352.685242 271.595551,353.840759 
	C278.134583,355.164551 284.696350,356.375977 291.236938,357.692505 
	C299.529510,359.361633 307.817719,361.054321 316.095032,362.797363 
	C325.954742,364.873596 335.800934,367.014008 345.681030,369.514801 
	C347.187073,373.551880 348.665070,377.200775 350.080383,381.277344 
	C349.767548,383.303925 349.652283,384.938019 349.245544,386.496002 
	C346.554688,396.803345 343.906952,407.123901 341.037506,417.382080 
	C338.343414,427.013306 335.260254,436.536133 332.595795,446.175079 
	C330.228699,454.738251 328.201141,463.395264 325.780762,472.112244 
	C325.438538,472.475616 325.339294,472.737579 325.240021,472.999573 
	C325.445709,473.063965 325.651367,473.128326 325.857056,473.192719 
	C325.885406,472.779022 325.913757,472.365356 326.305481,471.992249 
	C327.099579,471.809326 327.660065,471.691803 327.941956,471.346710 
	C334.458008,463.369324 340.978943,455.395355 347.418304,447.356110 
	C350.065765,444.050812 352.363586,440.457001 355.108032,437.239777 
	C359.263794,432.368103 363.670837,427.710754 368.274567,423.187805 
	C372.768188,434.775757 376.922882,446.151459 381.158875,457.496826 
	C385.059906,467.945038 389.169830,478.316620 392.967468,488.801758 
	C397.698151,501.863037 402.019287,515.074402 406.853821,528.096008 
	C412.366455,542.944031 418.393494,557.600708 423.935425,572.438293 
	C430.775909,590.752502 437.624207,609.073425 443.904236,627.583008 
	C446.591949,635.504639 451.884033,642.926392 449.258057,652.248657 
	C447.287018,659.245850 446.285278,666.511597 444.722961,673.629456 
	C442.301819,684.659668 439.784210,695.668823 437.280975,706.680847 
	C435.920349,712.666260 434.395782,718.616516 433.145630,724.624329 
	C431.957031,730.336487 431.103363,736.117554 429.968781,741.841858 
	C428.456635,749.471008 426.865875,757.085632 425.213257,764.685669 
	C423.913147,770.664551 422.397430,776.596619 421.107300,782.577515 
	C419.810577,788.588928 418.718658,794.644226 417.457916,800.663757 
	C415.270752,811.107117 413.000183,821.533020 410.809143,831.975525 
	C409.613129,837.675659 408.595673,843.414368 407.338074,849.100342 
	C406.085999,854.761597 404.564758,860.363037 403.289032,866.019470 
	C401.972809,871.855713 400.808899,877.726257 399.580841,883.582336 
	C398.351990,889.442322 397.126221,895.303040 395.899048,901.163391 
M456.152740,206.882339 
	C456.151886,206.652390 456.165131,206.420212 456.129791,206.195694 
	C456.126007,206.171646 455.838867,206.192215 455.683197,206.192093 
	C455.683197,206.435059 455.683228,206.678040 456.152740,206.882339 
M578.541321,151.923416 
	C578.646484,151.827026 578.828735,151.735336 578.834961,151.632904 
	C578.841064,151.532272 578.668457,151.420761 578.574280,151.314041 
	C578.468994,151.409988 578.363708,151.505936 578.541321,151.923416 
z"/>
<path fill="#C38D73" opacity="1.000000" stroke="none" 
	d="
M395.869568,901.546753 
	C397.126221,895.303040 398.351990,889.442322 399.580841,883.582336 
	C400.808899,877.726257 401.972809,871.855713 403.289032,866.019470 
	C404.564758,860.363037 406.085999,854.761597 407.338074,849.100342 
	C408.595673,843.414368 409.613129,837.675659 410.809143,831.975525 
	C413.000183,821.533020 415.270752,811.107117 417.457916,800.663757 
	C418.718658,794.644226 419.810577,788.588928 421.107300,782.577515 
	C422.397430,776.596619 423.913147,770.664551 425.213257,764.685669 
	C426.865875,757.085632 428.456635,749.471008 429.968781,741.841858 
	C431.103363,736.117554 431.957031,730.336487 433.145630,724.624329 
	C434.395782,718.616516 435.920349,712.666260 437.280975,706.680847 
	C439.784210,695.668823 442.301819,684.659668 444.722961,673.629456 
	C446.285278,666.511597 447.287018,659.245850 449.258057,652.248657 
	C451.884033,642.926392 446.591949,635.504639 443.904236,627.583008 
	C437.624207,609.073425 430.775909,590.752502 423.935425,572.438293 
	C418.393494,557.600708 412.366455,542.944031 406.853821,528.096008 
	C402.019287,515.074402 397.698151,501.863037 392.967468,488.801758 
	C389.169830,478.316620 385.059906,467.945038 381.158875,457.496826 
	C376.922882,446.151459 372.768188,434.775757 368.295593,422.822571 
	C370.953705,418.375946 373.818176,414.458893 376.855316,410.680603 
	C380.142029,406.591919 383.647308,402.679352 386.952850,398.605225 
	C391.149719,393.432495 395.241608,388.174591 398.916229,383.537140 
	C406.846832,385.550446 413.800140,387.264465 420.715973,389.118378 
	C421.966248,389.453552 423.062531,390.363007 424.157745,391.385437 
	C420.077423,399.983582 416.097015,408.217407 412.044006,416.415344 
	C410.848602,418.833282 409.448090,421.149780 408.097809,423.591949 
	C424.223938,431.181946 439.140778,438.202789 453.952728,445.539673 
	C452.260834,447.007294 450.760773,448.310455 449.069580,449.280273 
	C444.968719,451.631805 440.778900,453.828156 436.624908,456.087067 
	C439.768524,456.926178 442.457001,457.203979 445.069519,456.876099 
	C454.322845,455.714752 463.550171,454.346436 472.963684,453.381287 
	C481.410522,457.445374 489.681091,461.184753 498.871674,465.340118 
	C480.985840,478.114838 463.880249,490.332306 446.774353,502.550018 
	C465.895721,515.335693 485.161316,528.217834 504.368805,541.061096 
	C495.608795,555.383789 487.298248,568.971558 478.695648,583.036865 
	C480.440918,583.712646 481.717285,584.446472 483.082245,584.696228 
	C491.580170,586.251526 500.132965,587.524475 508.599182,589.230469 
	C517.024231,590.928040 525.340027,593.173035 533.774658,594.813416 
	C535.352051,595.120178 537.968201,594.231506 538.896240,592.990479 
	C542.314697,588.419128 545.187866,583.443237 548.334778,578.664673 
	C555.023376,568.507935 561.755066,558.379578 568.566345,548.092590 
	C572.263062,563.553711 575.880432,578.683105 579.508301,593.856323 
	C585.604431,591.988953 590.428833,590.578247 595.209473,589.032166 
	C604.163269,586.136475 613.091675,583.162292 622.039124,580.607117 
	C622.851196,584.033875 623.654846,587.074158 624.417664,589.960205 
	C627.228516,585.781189 630.108398,581.499573 633.390015,577.201782 
	C642.170044,574.047791 651.039612,572.712891 656.466003,563.517822 
	C662.818481,552.753540 671.088867,543.120972 678.853333,533.070312 
	C681.535034,534.509399 684.008545,535.709290 686.221863,537.276428 
	C690.912598,540.597778 695.467712,544.110657 700.078369,547.544922 
	C690.524719,564.559082 680.912476,581.540771 671.445312,598.602905 
	C667.497986,605.716980 663.945801,613.049377 660.061951,620.199829 
	C651.759949,635.484741 643.263184,650.664978 635.090881,666.018311 
	C633.698181,668.634766 632.975464,671.881714 632.884277,674.866150 
	C632.604553,684.016602 632.703064,693.181824 632.796143,702.339905 
	C633.226807,744.703125 633.603516,787.067261 634.210388,829.428101 
	C634.506653,850.104553 635.263794,870.774353 635.911133,891.935913 
	C635.943115,902.251038 635.775208,912.078430 635.870300,921.903198 
	C635.899170,924.888367 635.037537,926.364075 631.983521,927.063354 
	C613.672852,931.256226 595.476868,935.978394 577.100708,939.850769 
	C543.335571,946.966064 509.020264,946.747498 474.805359,945.680725 
	C458.969818,945.187012 443.165894,942.409058 427.440826,940.046326 
	C415.017578,938.179871 402.736725,935.365417 389.344635,932.768738 
	C391.585571,922.129395 393.712830,912.029724 395.869568,901.546753 
M547.038452,657.187805 
	C558.770691,655.451294 570.502991,653.714783 582.235229,651.978271 
	C582.305847,651.350464 582.376404,650.722717 582.447021,650.094910 
	C574.657043,642.414856 566.919250,634.679626 558.978149,627.159058 
	C558.340454,626.555115 555.778076,626.914429 555.005920,627.703247 
	C551.336609,631.451294 548.033020,635.553711 544.496216,639.435974 
	C538.280029,646.259521 531.982605,653.008911 525.743591,659.811707 
	C525.348572,660.242493 525.164062,660.866394 524.770020,661.611572 
	C528.986084,660.817444 532.838989,660.113220 536.682617,659.361206 
	C539.859375,658.739624 543.025085,658.061768 547.038452,657.187805 
z"/>
<path fill="#C38D73" opacity="1.000000" stroke="none" 
	d="
M570.923096,207.071960 
	C571.577576,207.126938 572.546509,206.920990 572.840515,207.275192 
	C579.717712,215.561829 586.568909,223.871246 593.326782,232.255524 
	C600.312866,240.922836 607.195251,249.673660 614.278687,258.583801 
	C611.802368,262.541534 615.007629,265.137848 617.742615,268.483032 
	C618.684021,267.170105 619.369080,266.214813 620.033752,265.287842 
	C623.238892,269.352203 626.251770,273.361755 629.462097,277.206543 
	C637.556824,286.901001 645.862488,296.421844 653.831909,306.217133 
	C657.309387,310.491364 660.032959,315.371368 663.370667,319.770020 
	C665.005737,321.924957 667.393494,323.490875 669.214600,325.525604 
	C678.026794,335.371521 686.734985,345.310455 695.531433,355.170593 
	C708.258667,369.436798 721.048096,383.647522 733.775757,397.913330 
	C741.217957,406.255066 748.613464,414.638885 755.982788,423.045135 
	C758.143250,425.509521 760.278870,428.022003 762.124939,430.718475 
	C762.628967,431.454773 762.383850,433.119690 761.895203,434.049896 
	C759.397156,438.805573 756.706848,443.460327 753.700012,448.357391 
	C751.740417,446.735077 750.164612,444.905731 747.767029,442.122498 
	C744.921692,445.511047 742.188538,448.784637 739.435364,452.041351 
	C728.434448,465.054504 717.414001,478.051239 706.454224,491.098969 
	C705.767151,491.916901 705.536255,493.117981 704.810669,494.312012 
	C701.821228,496.397919 699.114319,498.312592 696.193359,499.921112 
	C677.429382,489.830322 658.879517,480.045715 640.122681,470.151917 
	C659.174072,446.138275 679.002991,423.280853 696.943909,398.787811 
	C693.821594,399.029419 691.671570,394.909698 688.343689,399.206879 
	C679.578064,410.525482 669.843018,421.093292 660.493347,431.959473 
	C657.905518,434.967010 655.243530,437.914001 652.739319,440.989624 
	C644.434204,451.189758 636.134094,461.394897 627.944519,471.687622 
	C625.261780,475.059265 622.720764,475.452820 619.159424,472.856262 
	C616.024475,470.570587 612.503845,468.756775 609.002869,467.042175 
	C601.193359,463.217377 593.289734,459.584595 585.249878,455.561462 
	C578.845886,451.882843 572.616394,448.516388 566.630005,445.281250 
	C567.606201,443.238831 568.403015,441.571686 569.485046,439.768036 
	C580.504089,426.723267 591.220581,413.800568 601.987122,400.919617 
	C604.007141,398.502838 606.372314,396.368408 608.326538,393.904114 
	C613.829834,386.964264 619.113464,379.849487 624.652527,372.938965 
	C629.565186,366.809998 634.704163,360.862457 640.130798,354.371185 
	C635.792480,353.512451 633.025574,354.154388 630.802856,357.364014 
	C628.284424,361.000763 625.418945,364.409088 622.565674,367.800018 
	C612.389648,379.893677 602.191711,391.969421 591.931030,403.991333 
	C582.527100,415.009491 573.005188,425.927063 563.617859,436.959259 
	C562.721802,438.012360 562.413330,439.565430 561.542236,441.052368 
	C559.033081,443.167419 556.813660,445.116516 554.549255,447.105164 
	C551.328064,445.493225 548.268921,443.962341 545.068481,442.136475 
	C530.316223,434.582520 515.705261,427.323547 500.954681,419.751984 
	C499.584320,418.460327 498.353607,417.481323 497.290344,416.635529 
	C498.572784,414.432190 499.845856,412.244873 501.415894,409.908203 
	C507.851166,402.447510 513.976440,395.125214 520.136292,387.832123 
	C521.847412,385.806183 523.768372,383.951569 525.408142,381.872498 
	C530.895691,374.914764 536.149292,367.767548 541.771912,360.922516 
	C549.470093,351.550812 557.552734,342.494446 565.232178,333.107941 
	C572.697449,323.983307 579.766113,314.534729 587.200745,305.384277 
	C590.709961,301.065186 590.459473,297.852264 585.668213,294.263824 
	C580.034424,300.730469 574.346741,307.151276 568.786804,313.680817 
	C563.986084,319.318726 559.363403,325.107971 554.598755,330.777130 
	C551.618225,334.323517 548.421143,337.690491 545.495850,341.280273 
	C539.483154,348.658752 533.651367,356.184875 527.623596,363.550781 
	C522.938965,369.275299 517.887146,374.706085 513.335693,380.530823 
	C508.935455,386.162018 507.639160,386.675964 501.204071,383.231354 
	C498.913940,382.005432 496.797638,380.445831 494.479126,379.283569 
	C479.371552,371.710083 464.230133,364.204010 448.837677,356.545471 
	C455.875885,347.821503 462.340576,339.747589 468.873444,331.729187 
	C474.591064,324.711456 480.416992,317.781982 486.138000,310.766937 
	C493.703186,301.490692 501.157288,292.123413 508.765289,282.882660 
	C513.991638,276.534668 519.518921,270.432831 524.696350,264.046448 
	C532.322449,254.639496 539.670654,245.007248 547.296692,235.600266 
	C555.071777,226.009430 563.039673,216.574921 570.923096,207.071960 
z"/>
<path fill="#5DA170" opacity="1.000000" stroke="none" 
	d="
M570.847534,206.721695 
	C563.039673,216.574921 555.071777,226.009430 547.296692,235.600266 
	C539.670654,245.007248 532.322449,254.639496 524.696350,264.046448 
	C519.518921,270.432831 513.991638,276.534668 508.765289,282.882660 
	C501.157288,292.123413 493.703186,301.490692 486.138000,310.766937 
	C480.416992,317.781982 474.591064,324.711456 468.873444,331.729187 
	C462.340576,339.747589 455.875885,347.821503 448.837677,356.545471 
	C464.230133,364.204010 479.371552,371.710083 494.479126,379.283569 
	C496.797638,380.445831 498.913940,382.005432 501.204071,383.231354 
	C507.639160,386.675964 508.935455,386.162018 513.335693,380.530823 
	C517.887146,374.706085 522.938965,369.275299 527.623596,363.550781 
	C533.651367,356.184875 539.483154,348.658752 545.495850,341.280273 
	C548.421143,337.690491 551.618225,334.323517 554.598755,330.777130 
	C559.363403,325.107971 563.986084,319.318726 568.786804,313.680817 
	C574.346741,307.151276 580.034424,300.730469 585.668213,294.263824 
	C590.459473,297.852264 590.709961,301.065186 587.200745,305.384277 
	C579.766113,314.534729 572.697449,323.983307 565.232178,333.107941 
	C557.552734,342.494446 549.470093,351.550812 541.771912,360.922516 
	C536.149292,367.767548 530.895691,374.914764 525.408142,381.872498 
	C523.768372,383.951569 521.847412,385.806183 520.136292,387.832123 
	C513.976440,395.125214 507.851166,402.447510 500.999451,409.882263 
	C495.860474,408.938690 491.403625,407.985779 487.014740,406.784576 
	C469.475464,401.984131 451.977112,397.032654 434.413635,392.323517 
	C431.136993,391.444946 427.630402,391.424042 424.229919,391.007355 
	C423.062531,390.363007 421.966248,389.453552 420.715973,389.118378 
	C413.800140,387.264465 406.846832,385.550446 398.916229,383.537140 
	C395.241608,388.174591 391.149719,393.432495 386.952850,398.605225 
	C383.647308,402.679352 380.142029,406.591919 376.855316,410.680603 
	C373.818176,414.458893 370.953705,418.375946 367.992126,422.597107 
	C363.670837,427.710754 359.263794,432.368103 355.108032,437.239777 
	C352.363586,440.457001 350.065765,444.050812 347.418304,447.356110 
	C340.978943,455.395355 334.458008,463.369324 327.941956,471.346710 
	C327.660065,471.691803 327.099579,471.809326 326.325439,472.007660 
	C325.982025,471.982483 326.023712,472.010834 326.023712,472.010834 
	C328.201141,463.395264 330.228699,454.738251 332.595795,446.175079 
	C335.260254,436.536133 338.343414,427.013306 341.037506,417.382080 
	C343.906952,407.123901 346.554688,396.803345 349.245544,386.496002 
	C349.652283,384.938019 349.767548,383.303925 350.396698,381.108368 
	C351.332794,378.661011 352.153534,376.839874 352.365356,374.950470 
	C352.541870,373.376251 352.546417,370.833710 351.664978,370.295349 
	C350.032135,369.298065 347.696136,369.452087 345.652985,369.126587 
	C335.800934,367.014008 325.954742,364.873596 316.095032,362.797363 
	C307.817719,361.054321 299.529510,359.361633 291.236938,357.692505 
	C284.696350,356.375977 278.134583,355.164551 271.595551,353.840759 
	C265.887909,352.685242 260.198883,351.437927 253.389374,349.995605 
	C257.918304,349.189606 261.444061,348.459595 265.001740,347.954285 
	C269.688202,347.288635 274.387604,346.649323 279.103271,346.269745 
	C286.174347,345.700592 293.278381,345.524323 300.342926,344.894836 
	C309.972015,344.036896 319.580658,342.941010 329.186493,341.845642 
	C330.068573,341.745087 330.866974,340.910675 332.498474,340.223572 
	C342.645050,339.316620 352.005646,338.688629 361.339996,337.788177 
	C362.595734,337.667053 364.651001,336.277618 364.760895,335.298615 
	C366.000824,324.250824 367.135529,313.182190 367.887177,302.091278 
	C368.557312,292.203003 368.676208,282.278107 369.135223,272.373871 
	C369.202606,270.920532 369.806641,269.492096 370.162354,268.052124 
	C370.387268,267.441559 370.782593,266.838959 370.811615,266.219177 
	C371.291962,255.972107 371.469391,245.703613 372.236267,235.479034 
	C373.186066,222.816269 374.616089,210.189529 375.904053,196.871246 
	C384.678955,218.920807 393.230682,240.409470 402.073273,262.629089 
	C409.542786,254.645996 416.285828,247.408600 423.063263,240.203583 
	C432.139313,230.554901 441.232880,220.922653 450.344330,211.307419 
	C451.552002,210.032974 452.908722,208.899750 454.196411,207.701126 
	C454.591827,207.961212 454.987274,208.221298 455.382690,208.481369 
	C446.118988,230.508316 436.855286,252.535278 427.063202,275.818604 
	C441.256104,278.104004 455.310150,280.367035 470.461090,282.806702 
	C469.635956,241.720993 468.821472,201.166626 468.007019,160.612259 
	C468.434784,160.529205 468.862579,160.446152 469.290344,160.363098 
	C484.187958,192.228867 499.085541,224.094635 514.391357,256.833557 
	C535.651184,221.672409 556.312317,187.501556 576.960754,153.351562 
	C580.178711,162.567032 572.059875,190.657516 564.117188,197.046295 
	C566.358459,200.186874 568.565247,203.279160 570.847534,206.721695 
z"/>
<path fill="#5DA070" opacity="1.000000" stroke="none" 
	d="
M585.424500,455.873627 
	C593.289734,459.584595 601.193359,463.217377 609.002869,467.042175 
	C612.503845,468.756775 616.024475,470.570587 619.159424,472.856262 
	C622.720764,475.452820 625.261780,475.059265 627.944519,471.687622 
	C636.134094,461.394897 644.434204,451.189758 652.739319,440.989624 
	C655.243530,437.914001 657.905518,434.967010 660.493347,431.959473 
	C669.843018,421.093292 679.578064,410.525482 688.343689,399.206879 
	C691.671570,394.909698 693.821594,399.029419 696.943909,398.787811 
	C679.002991,423.280853 659.174072,446.138275 640.122681,470.151917 
	C658.879517,480.045715 677.429382,489.830322 696.022705,500.249634 
	C690.679443,504.006195 690.457031,505.775269 694.982544,511.117462 
	C696.474854,513.682800 697.665466,516.014587 699.167175,518.124939 
	C702.321472,522.557617 705.639160,526.874023 708.889771,531.238159 
	C712.057007,536.852844 715.155884,542.507629 718.412048,548.070251 
	C721.327026,553.050049 724.415466,557.928345 726.661438,563.562012 
	C719.369446,558.830322 712.096069,554.069458 704.766785,549.396179 
	C703.577026,548.637573 702.139893,548.267029 700.447754,547.631042 
	C695.467712,544.110657 690.912598,540.597778 686.221863,537.276428 
	C684.008545,535.709290 681.535034,534.509399 678.688721,532.747070 
	C674.114502,529.489990 670.030945,526.628967 665.681152,523.581360 
	C664.196655,525.670532 663.082031,527.076782 662.140564,528.590759 
	C656.883972,537.043213 651.585571,545.471497 646.465332,554.006348 
	C641.863098,561.677673 637.472290,569.475830 632.988220,577.218018 
	C630.108398,581.499573 627.228516,585.781189 624.417664,589.960205 
	C623.654846,587.074158 622.851196,584.033875 622.109619,580.146118 
	C621.197083,572.030823 620.216492,564.763855 619.249451,557.494995 
	C618.261719,550.070984 617.197449,542.655579 616.329895,535.217407 
	C615.230347,525.790039 614.146606,516.356140 613.345093,506.900604 
	C612.863770,501.223511 612.132263,500.176697 606.743286,500.175140 
	C581.778137,500.167938 556.812866,500.141998 531.848022,500.227417 
	C529.794434,500.234436 527.753845,501.321136 525.689209,501.393677 
	C520.606506,501.572296 515.513306,501.452118 510.424347,501.452118 
	C510.402771,501.163757 510.381165,500.875427 510.359558,500.587067 
	C526.402893,492.951752 542.446289,485.316437 558.885315,477.492798 
	C545.656616,469.484497 533.000305,461.822693 520.343933,454.160858 
	C520.551697,453.762177 520.759399,453.363464 520.967163,452.964752 
	C541.820984,456.180237 562.674744,459.395691 583.842957,462.659668 
	C584.391785,460.304688 584.908142,458.089142 585.424500,455.873627 
z"/>
<path fill="#C38C72" opacity="1.000000" stroke="none" 
	d="
M369.924683,267.796143 
	C369.806641,269.492096 369.202606,270.920532 369.135223,272.373871 
	C368.676208,282.278107 368.557312,292.203003 367.887177,302.091278 
	C367.135529,313.182190 366.000824,324.250824 364.760895,335.298615 
	C364.651001,336.277618 362.595734,337.667053 361.339996,337.788177 
	C352.005646,338.688629 342.645050,339.316620 332.863831,340.043030 
	C329.720642,333.807220 326.991516,327.564941 324.295105,321.308533 
	C318.078217,306.883820 313.213348,291.654999 305.234589,278.283142 
	C299.170532,268.120178 303.759277,260.583069 306.275116,252.021835 
	C310.071899,239.101303 314.145386,226.262085 318.114441,213.345367 
	C318.231171,213.359985 318.543945,213.364090 318.837646,213.441055 
	C327.016113,215.583603 331.860229,221.608673 336.362946,228.186768 
	C338.572540,231.414841 341.297852,234.298309 343.870087,237.268158 
	C350.627441,245.070023 357.452301,252.813492 364.197968,260.625397 
	C366.119659,262.850861 367.862274,265.230988 369.924683,267.796143 
z"/>
<path fill="#5C9F6F" opacity="1.000000" stroke="none" 
	d="
M705.093140,494.140808 
	C705.536255,493.117981 705.767151,491.916901 706.454224,491.098969 
	C717.414001,478.051239 728.434448,465.054504 739.435364,452.041351 
	C742.188538,448.784637 744.921692,445.511047 747.767029,442.122498 
	C750.164612,444.905731 751.740417,446.735077 753.616333,448.699097 
	C757.879517,454.806335 761.777771,460.823273 765.828735,466.735626 
	C768.507263,470.644928 771.733398,474.213104 774.103577,478.289215 
	C776.110840,481.741119 778.931824,482.166931 782.328979,482.318573 
	C793.362000,482.811005 804.390930,483.403870 815.417908,484.021332 
	C821.673096,484.371643 827.924866,484.799713 834.172058,485.273621 
	C846.956116,486.243408 859.736511,487.262512 872.515625,488.295685 
	C872.889771,488.325958 873.232727,488.742249 874.095886,489.312775 
	C868.748413,489.978302 863.990417,490.661255 859.212158,491.143188 
	C852.524109,491.817719 845.804749,492.200439 839.127930,492.963348 
	C828.077515,494.225983 817.056458,495.742523 806.011169,497.052917 
	C799.992554,497.766937 793.949219,498.272583 787.917847,498.879730 
	C778.482971,499.829498 769.048706,500.785675 758.784180,501.823029 
	C755.026733,527.752441 751.297363,553.488647 747.360107,580.659302 
	C746.382141,577.599121 745.264160,575.636963 745.193787,573.638000 
	C744.622803,557.407104 744.349304,541.165894 743.777039,524.935059 
	C743.412109,514.582764 742.724609,504.241119 742.121704,493.898224 
	C741.747742,487.482483 741.261353,481.073242 740.831299,473.822388 
	C740.726746,471.816650 740.616394,470.649628 740.450012,468.889923 
	C733.199707,474.042755 726.505676,478.634521 720.000610,483.480011 
	C715.459595,486.862549 711.177307,490.592438 706.498291,494.167969 
	C705.842529,494.159454 705.467834,494.150116 705.093140,494.140808 
z"/>
<path fill="#C08B72" opacity="1.000000" stroke="none" 
	d="
M706.779419,494.167145 
	C711.177307,490.592438 715.459595,486.862549 720.000610,483.480011 
	C726.505676,478.634521 733.199707,474.042755 740.450012,468.889923 
	C740.616394,470.649628 740.726746,471.816650 740.835938,473.334839 
	C739.753052,475.414062 738.576172,477.090363 737.604980,478.878387 
	C730.698853,491.593048 723.841736,504.334320 716.953674,517.058838 
	C714.479004,521.630310 711.962280,526.179138 709.177246,530.988281 
	C705.639160,526.874023 702.321472,522.557617 699.167175,518.124939 
	C697.665466,516.014587 696.474854,513.682800 695.069214,510.791321 
	C698.923218,504.809906 702.851318,499.488525 706.779419,494.167145 
z"/>
<path fill="#B3896F" opacity="1.000000" stroke="none" 
	d="
M345.681030,369.514771 
	C347.696136,369.452087 350.032135,369.298065 351.664978,370.295349 
	C352.546417,370.833710 352.541870,373.376251 352.365356,374.950470 
	C352.153534,376.839874 351.332794,378.661011 350.459412,380.680664 
	C348.665070,377.200775 347.187073,373.551880 345.681030,369.514771 
z"/>
<path fill="#5DA170" opacity="1.000000" stroke="none" 
	d="
M325.962067,471.967072 
	C325.913757,472.365356 325.885406,472.779022 325.857056,473.192719 
	C325.651367,473.128326 325.445709,473.063965 325.240021,472.999573 
	C325.339294,472.737579 325.438538,472.475616 325.780762,472.112244 
	C326.023712,472.010834 325.982025,471.982483 325.962067,471.967072 
z"/>
<path fill="#5DA170" opacity="1.000000" stroke="none" 
	d="
M455.917969,206.901672 
	C455.683228,206.678040 455.683197,206.435059 455.683197,206.192093 
	C455.838867,206.192215 456.126007,206.171646 456.129791,206.195694 
	C456.165131,206.420212 456.151886,206.652390 455.917969,206.901672 
z"/>
<path fill="#5DA170" opacity="1.000000" stroke="none" 
	d="
M578.399902,151.762665 
	C578.363708,151.505936 578.468994,151.409988 578.574280,151.314026 
	C578.668457,151.420761 578.841064,151.532272 578.834961,151.632904 
	C578.828735,151.735336 578.646484,151.827026 578.399902,151.762665 
z"/>
<path fill="#2D1406" opacity="1.000000" stroke="none" 
	d="
M585.249878,455.561462 
	C584.908142,458.089142 584.391785,460.304688 583.842957,462.659668 
	C562.674744,459.395691 541.820984,456.180237 520.967163,452.964752 
	C520.759399,453.363464 520.551697,453.762177 520.343933,454.160858 
	C533.000305,461.822693 545.656616,469.484497 558.885315,477.492798 
	C542.446289,485.316437 526.402893,492.951752 510.359558,500.587067 
	C510.381165,500.875427 510.402771,501.163757 510.424347,501.452118 
	C515.513306,501.452118 520.606506,501.572296 525.689209,501.393677 
	C527.753845,501.321136 529.794434,500.234436 531.848022,500.227417 
	C556.812866,500.141998 581.778137,500.167938 606.743286,500.175140 
	C612.132263,500.176697 612.863770,501.223511 613.345093,506.900604 
	C614.146606,516.356140 615.230347,525.790039 616.329895,535.217407 
	C617.197449,542.655579 618.261719,550.070984 619.249451,557.494995 
	C620.216492,564.763855 621.197083,572.030823 622.101135,579.759644 
	C613.091675,583.162292 604.163269,586.136475 595.209473,589.032166 
	C590.428833,590.578247 585.604431,591.988953 579.508301,593.856323 
	C575.880432,578.683105 572.263062,563.553711 568.566345,548.092590 
	C561.755066,558.379578 555.023376,568.507935 548.334778,578.664673 
	C545.187866,583.443237 542.314697,588.419128 538.896240,592.990479 
	C537.968201,594.231506 535.352051,595.120178 533.774658,594.813416 
	C525.340027,593.173035 517.024231,590.928040 508.599182,589.230469 
	C500.132965,587.524475 491.580170,586.251526 483.082245,584.696228 
	C481.717285,584.446472 480.440918,583.712646 478.695648,583.036865 
	C487.298248,568.971558 495.608795,555.383789 504.368805,541.061096 
	C485.161316,528.217834 465.895721,515.335693 446.774353,502.550018 
	C463.880249,490.332306 480.985840,478.114838 498.871674,465.340118 
	C489.681091,461.184753 481.410522,457.445374 473.402771,453.342773 
	C478.513763,452.348816 483.371918,451.785706 488.207947,451.072693 
	C497.083160,449.764160 505.925720,448.217712 514.818481,447.048920 
	C523.907654,445.854340 533.045532,445.033691 542.148254,443.934692 
	C543.213745,443.806061 544.191406,442.950165 545.209778,442.431488 
	C548.268921,443.962341 551.328064,445.493225 554.549255,447.105164 
	C556.813660,445.116516 559.033081,443.167419 561.967041,441.110687 
	C564.854370,440.636871 567.027039,440.270691 569.199829,439.904510 
	C568.403015,441.571686 567.606201,443.238831 566.630005,445.281250 
	C572.616394,448.516388 578.845886,451.882843 585.249878,455.561462 
z"/>
<path fill="#2D1406" opacity="1.000000" stroke="none" 
	d="
M424.157745,391.385437 
	C427.630402,391.424042 431.136993,391.444946 434.413635,392.323517 
	C451.977112,397.032654 469.475464,401.984131 487.014740,406.784576 
	C491.403625,407.985779 495.860474,408.938690 500.702515,410.031647 
	C499.845856,412.244873 498.572784,414.432190 497.290344,416.635529 
	C498.353607,417.481323 499.584320,418.460327 500.632080,419.887543 
	C490.966919,425.712921 481.553741,431.217255 471.976837,436.420166 
	C466.134033,439.594452 460.039246,442.304871 454.057617,445.223602 
	C439.140778,438.202789 424.223938,431.181946 408.097809,423.591949 
	C409.448090,421.149780 410.848602,418.833282 412.044006,416.415344 
	C416.097015,408.217407 420.077423,399.983582 424.157745,391.385437 
z"/>
<path fill="#5DA06F" opacity="1.000000" stroke="none" 
	d="
M453.952728,445.539673 
	C460.039246,442.304871 466.134033,439.594452 471.976837,436.420166 
	C481.553741,431.217255 490.966919,425.712921 500.771729,420.200165 
	C515.705261,427.323547 530.316223,434.582520 545.068481,442.136475 
	C544.191406,442.950165 543.213745,443.806061 542.148254,443.934692 
	C533.045532,445.033691 523.907654,445.854340 514.818481,447.048920 
	C505.925720,448.217712 497.083160,449.764160 488.207947,451.072693 
	C483.371918,451.785706 478.513763,452.348816 473.226471,453.018036 
	C463.550171,454.346436 454.322845,455.714752 445.069519,456.876099 
	C442.457001,457.203979 439.768524,456.926178 436.624908,456.087067 
	C440.778900,453.828156 444.968719,451.631805 449.069580,449.280273 
	C450.760773,448.310455 452.260834,447.007294 453.952728,445.539673 
z"/>
<path fill="#301608" opacity="1.000000" stroke="none" 
	d="
M546.617065,657.298340 
	C543.025085,658.061768 539.859375,658.739624 536.682617,659.361206 
	C532.838989,660.113220 528.986084,660.817444 524.770020,661.611572 
	C525.164062,660.866394 525.348572,660.242493 525.743591,659.811707 
	C531.982605,653.008911 538.280029,646.259521 544.496216,639.435974 
	C548.033020,635.553711 551.336609,631.451294 555.005920,627.703247 
	C555.778076,626.914429 558.340454,626.555115 558.978149,627.159058 
	C566.919250,634.679626 574.657043,642.414856 582.447021,650.094910 
	C582.376404,650.722717 582.305847,651.350464 582.235229,651.978271 
	C570.502991,653.714783 558.770691,655.451294 546.617065,657.298340 
z"/>
<path fill="#301709" opacity="1.000000" stroke="none" 
	d="
M633.390015,577.201782 
	C637.472290,569.475830 641.863098,561.677673 646.465332,554.006348 
	C651.585571,545.471497 656.883972,537.043213 662.140564,528.590759 
	C663.082031,527.076782 664.196655,525.670532 665.681152,523.581360 
	C670.030945,526.628967 674.114502,529.489990 678.362671,532.674194 
	C671.088867,543.120972 662.818481,552.753540 656.466003,563.517822 
	C651.039612,572.712891 642.170044,574.047791 633.390015,577.201782 
z"/>
<path fill="#63A071" opacity="1.000000" stroke="none" 
	d="
M569.484985,439.768005 
	C567.027039,440.270691 564.854370,440.636871 562.256836,440.944702 
	C562.413330,439.565430 562.721802,438.012360 563.617859,436.959259 
	C573.005188,425.927063 582.527100,415.009491 591.931030,403.991333 
	C602.191711,391.969421 612.389648,379.893677 622.565674,367.800018 
	C625.418945,364.409088 628.284424,361.000763 630.802856,357.364014 
	C633.025574,354.154388 635.792480,353.512451 640.130798,354.371185 
	C634.704163,360.862457 629.565186,366.809998 624.652527,372.938965 
	C619.113464,379.849487 613.829834,386.964264 608.326538,393.904114 
	C606.372314,396.368408 604.007141,398.502838 601.987122,400.919617 
	C591.220581,413.800568 580.504089,426.723267 569.484985,439.768005 
z"/>
<path fill="#372011" opacity="1.000000" stroke="none" 
	d="
M706.498291,494.167969 
	C702.851318,499.488525 698.923218,504.809906 694.908447,510.457428 
	C690.457031,505.775269 690.679443,504.006195 696.236816,500.555847 
	C699.114319,498.312592 701.821228,496.397919 704.810608,494.312012 
	C705.467834,494.150116 705.842529,494.159454 706.498291,494.167969 
z"/>
</svg>